<mxfile host="app.diagrams.net" modified="2023-05-02T09:51:15.311Z" agent="Mozilla/5.0 (Windows NT 10.0; Win64; x64) AppleWebKit/537.36 (KHTML, like Gecko) Chrome/112.0.0.0 Safari/537.36" version="21.2.1" etag="7PEw3ir9-F6HJ-WZpFoV" type="github">
  <diagram name="Sayfa -1" id="ZSB9GFYhAlsYdXEXsjk7">
    <mxGraphModel>
      <root>
        <mxCell id="0" />
        <mxCell id="1" parent="0" />
      </root>
    </mxGraphModel>
  </diagram>
</mxfile>
